<svg width="32" height="32" viewBox="0 0 32 32" fill="none" xmlns="http://www.w3.org/2000/svg">
<path d="M9.74808 25.168L5.64348 28.6185C5.49771 28.741 5.31998 28.8194 5.1312 28.8444C4.94241 28.8694 4.75042 28.8399 4.57779 28.7595C4.40516 28.6791 4.25908 28.5511 4.15673 28.3905C4.05437 28.2299 4 28.0435 4 27.853V8.00006C4 7.73484 4.10536 7.48049 4.29289 7.29295C4.48043 7.10542 4.73478 7.00006 5 7.00006H27C27.2652 7.00006 27.5196 7.10542 27.7071 7.29295C27.8946 7.48049 28 7.73484 28 8.00006V24.0001C28 24.2653 27.8946 24.5196 27.7071 24.7072C27.5196 24.8947 27.2652 25.0001 27 25.0001H10.2089L9.74808 25.168Z" stroke="#3879ED" stroke-width="1.7" stroke-linecap="round" stroke-linejoin="round"/>
<path d="M12 14H20" stroke="#3879ED" stroke-width="1.7" stroke-linecap="round" stroke-linejoin="round"/>
<path d="M12 18H20" stroke="#3879ED" stroke-width="1.7" stroke-linecap="round" stroke-linejoin="round"/>
</svg>
