<svg width="32" height="32" fill="none" xmlns="http://www.w3.org/2000/svg"><path d="M15.227 3.206c-2.431.127-4.914 1.03-6.88 2.502-3.479 2.606-5.378 6.675-5.144 11.025.264 4.914 3.361 9.26 7.933 11.132 1.587.65 3.095.942 4.864.942 1.366 0 2.473-.157 3.673-.52 4.959-1.502 8.455-5.69 9.076-10.874.074-.618.074-2.208 0-2.826-.355-2.961-1.621-5.592-3.682-7.654-2.608-2.607-6.081-3.922-9.84-3.727m2.108 1.703a11.205 11.205 0 0 1 8.637 6.078c.815 1.624 1.174 3.159 1.174 5.013s-.359 3.389-1.174 5.013a11.237 11.237 0 0 1-6.086 5.459c-2.432.909-5.34.909-7.772 0a11.233 11.233 0 0 1-7.205-9.137c-.072-.582-.072-2.088 0-2.67.412-3.314 2.247-6.234 5.075-8.073 1.29-.839 3.051-1.478 4.629-1.681.511-.065 2.2-.066 2.722-.002m-1.687 3.353a.842.842 0 0 0-.346.305l-.129.206-.016 3.494c-.009 1.921-.001 3.625.019 3.785.03.25.067.325.257.515s.265.227.515.257c.16.02 1.864.028 3.785.019l3.494-.016.196-.122c.209-.13.418-.486.416-.709-.002-.238-.191-.561-.406-.694l-.206-.129-3.185-.015-3.185-.015-.015-3.185-.015-3.185-.129-.206c-.135-.217-.458-.405-.698-.405-.073 0-.232.045-.352.1" fill-rule="evenodd" fill="#000"/></svg>