<svg width="24" height="24" fill="none" xmlns="http://www.w3.org/2000/svg"><path d="M16.131 1.681a3.57 3.57 0 0 0-2.849 1.979c-.233.472-.325.841-.35 1.4-.024.543.024.935.164 1.338l.095.271-2.254 1.449-2.254 1.448-.31-.261a3.871 3.871 0 0 0-1.163-.687 3.601 3.601 0 0 0-4.43 1.801c-.256.519-.356.962-.356 1.581s.1 1.062.356 1.58c.917 1.855 3.212 2.561 5.001 1.537.155-.089.421-.279.592-.422l.31-.261 2.254 1.448 2.254 1.449-.095.271c-.14.403-.188.795-.164 1.338.025.559.117.928.35 1.4a3.603 3.603 0 0 0 2.468 1.922 4.496 4.496 0 0 0 1.5 0 3.63 3.63 0 0 0 2.712-2.542c.106-.373.147-1.139.082-1.552-.198-1.273-1.14-2.387-2.375-2.811-1.235-.424-2.624-.144-3.554.716-.176.163-.291.242-.324.222a685.677 685.677 0 0 1-4.445-2.857c-.019-.017.003-.14.049-.273.107-.308.205-.867.205-1.165 0-.298-.098-.857-.205-1.165-.046-.133-.068-.256-.049-.273.028-.026 4.283-2.761 4.445-2.857.033-.02.148.059.324.222.624.577 1.501.912 2.385.912 1.749 0 3.278-1.297 3.544-3.007.065-.413.024-1.179-.082-1.552a3.72 3.72 0 0 0-1.615-2.113 3.713 3.713 0 0 0-2.216-.486m.838 1.216c.869.166 1.596.841 1.852 1.719.081.281.092.877.022 1.184-.098.421-.313.793-.662 1.141-.495.494-.987.699-1.681.699-.632 0-1.15-.196-1.595-.604-.6-.55-.877-1.281-.785-2.074.062-.531.271-.973.641-1.354a2.319 2.319 0 0 1 2.208-.711M6.524 9.657c.888.189 1.669.99 1.832 1.88.159.863-.109 1.643-.771 2.25-.712.652-1.756.797-2.649.367-.381-.183-.905-.706-1.087-1.084a2.449 2.449 0 0 1-.002-2.141c.181-.372.71-.901 1.083-1.083a2.512 2.512 0 0 1 1.594-.189M17.1 16.422c.43.112.735.292 1.084.639.506.502.712 1.006.707 1.725a2.257 2.257 0 0 1-.651 1.604c-.431.444-.83.652-1.41.735-1.13.164-2.22-.508-2.613-1.612-.153-.43-.145-1.106.02-1.575.246-.7.919-1.319 1.646-1.514.291-.079.92-.08 1.217-.002" fill-rule="evenodd" fill="#000"/></svg>