<svg width="30" height="30" fill="none" xmlns="http://www.w3.org/2000/svg"><path d="M11.375.104C8.597.309 6.738.729 5.197 1.501 2.174 3.015.616 5.764.178 10.35c-.243 2.543-.243 6.767 0 9.3.391 4.089 1.687 6.723 4.097 8.328 2.204 1.467 5.113 2.022 10.6 2.021 5.074-.001 7.755-.406 9.95-1.502.818-.408 1.438-.86 2.153-1.572 2.328-2.316 3.102-5.612 3.006-12.8-.03-2.218-.067-2.97-.211-4.25-.479-4.252-2.064-6.915-4.991-8.384C23.379.787 21.968.438 19.431.168c-.598-.063-1.454-.083-4.106-.094-1.843-.008-3.62.005-3.95.03m3.965 3.539c.066.042.1.323.208 1.732.268 3.494.956 5.409 2.462 6.855 1.488 1.428 3.374 2.021 7.283 2.291.605.041 1.041.093 1.075.127.072.072.073.681.002.752-.029.029-.513.086-1.074.126-2.287.162-3.39.335-4.626.726-2.175.69-3.707 2.2-4.41 4.348-.407 1.244-.606 2.47-.763 4.698-.057.82-.1 1.041-.213 1.113-.032.02-.177.038-.32.038-.387.001-.395-.02-.487-1.349-.27-3.881-.881-5.713-2.407-7.214-1.498-1.473-3.397-2.096-7.12-2.335-1.408-.09-1.4-.087-1.4-.526 0-.439-.001-.439 1.4-.527 3.745-.235 5.766-.926 7.251-2.478 1.433-1.496 2.039-3.412 2.3-7.27.059-.872.087-1.059.168-1.112.077-.05.59-.046.671.005" fill="#3879ED" fill-rule="evenodd"/></svg>