<svg width="30" height="30" viewBox="0 0 30 30" fill="none" xmlns="http://www.w3.org/2000/svg"><path d="M12.350 0.050 C 9.095 0.199,6.969 0.619,5.275 1.448 C 3.566 2.284,2.285 3.565,1.449 5.275 C 0.394 7.430,-0.001 10.088,0.000 15.020 C 0.002 19.144,0.271 21.544,0.958 23.544 C 1.805 26.013,3.430 27.796,5.719 28.772 C 7.907 29.704,10.780 30.049,15.825 29.985 C 18.076 29.956,18.835 29.918,20.100 29.771 C 23.322 29.396,25.441 28.522,27.010 26.918 C 27.488 26.430,27.631 26.250,28.035 25.639 C 29.463 23.474,30.001 20.555,29.999 14.975 C 29.998 10.854,29.728 8.454,29.042 6.456 C 28.105 3.726,26.279 1.899,23.548 0.961 C 22.261 0.518,20.727 0.252,18.575 0.099 C 17.585 0.029,13.522 -0.003,12.350 0.050 M15.390 3.663 C 15.419 3.698,15.468 4.143,15.498 4.651 C 15.731 8.594,16.370 10.596,17.886 12.127 C 19.355 13.611,21.478 14.299,25.243 14.511 C 26.270 14.569,26.315 14.576,26.387 14.686 C 26.474 14.819,26.454 15.316,26.358 15.412 C 26.323 15.447,26.009 15.485,25.562 15.507 C 21.642 15.704,19.500 16.348,18.000 17.781 C 16.402 19.308,15.744 21.303,15.497 25.375 C 15.433 26.437,15.427 26.450,15.002 26.450 C 14.550 26.450,14.551 26.451,14.497 25.473 C 14.343 22.652,14.006 20.950,13.339 19.625 C 12.980 18.910,12.645 18.443,12.101 17.899 C 10.561 16.359,8.526 15.726,4.406 15.507 C 3.576 15.463,3.550 15.448,3.550 15.021 C 3.550 14.576,3.556 14.573,4.779 14.507 C 9.040 14.276,11.265 13.404,12.758 11.379 C 13.794 9.973,14.306 8.006,14.501 4.676 C 14.531 4.154,14.580 3.699,14.609 3.664 C 14.681 3.578,15.319 3.577,15.390 3.663 " fill="#3879ED" stroke="none" fill-rule="evenodd"></path></svg>