<svg width="32" height="32" viewBox="0 0 32 32" fill="none" xmlns="http://www.w3.org/2000/svg">
<path d="M25 19C25 14.8249 22.9045 11.0416 20.7129 8.24121C19.6257 6.85197 18.5364 5.73222 17.7197 4.96094C17.6241 4.87059 17.53 4.78754 17.4424 4.70703L13.9395 14.3418C13.8305 14.6414 13.5854 14.8709 13.2793 14.96C12.973 15.049 12.6423 14.9867 12.3896 14.792L8.97656 12.1631C7.80402 14.2409 7 16.558 7 19C7 21.3869 7.94791 23.6764 9.63574 25.3643C11.3236 27.0521 13.6131 28 16 28L16.4463 27.9893C18.6708 27.8789 20.7819 26.9466 22.3643 25.3643C24.0521 23.6764 25 21.3869 25 19ZM27 19C27 21.9174 25.8412 24.7154 23.7783 26.7783C21.8445 28.7122 19.2645 29.8513 16.5459 29.9863L16 30C13.0826 30 10.2846 28.8412 8.22168 26.7783C6.15878 24.7154 5 21.9174 5 19C5 15.676 6.25859 12.6514 7.85449 10.1475L7.91504 10.0625C8.06647 9.87218 8.28348 9.74258 8.52539 9.7002C8.80175 9.65185 9.08536 9.72234 9.30762 9.89356L12.5273 12.373L16.0605 2.65821L16.1074 2.54883C16.232 2.30231 16.4548 2.11651 16.7236 2.03907C17.0308 1.95073 17.362 2.01471 17.6143 2.21094L17.6172 2.21387C17.6189 2.21519 17.6213 2.21662 17.624 2.21875C17.6297 2.22318 17.6376 2.2295 17.6475 2.23731C17.6672 2.25294 17.6957 2.27473 17.7314 2.30371C17.8029 2.36165 17.9052 2.44614 18.0342 2.55567C18.2922 2.7748 18.6568 3.09604 19.0928 3.50782C19.9636 4.33025 21.1245 5.52319 22.2871 7.00879C24.5955 9.95838 27 14.1752 27 19Z" fill="#3879ED"/>
</svg>
