<svg width="32" height="32" fill="none" xmlns="http://www.w3.org/2000/svg"><path d="M11.493 2.795c-1.193.402-2.255.928-2.564 1.27-.322.356-.472.772-.69 1.908l-.199 1.04-.501.509-.501.509-1.052.203c-1.157.224-1.564.373-1.93.703-.475.429-1.496 2.854-1.496 3.553 0 .502.127.787.802 1.804l.638.961v1.49l-.638.961c-.675 1.017-.802 1.302-.802 1.804 0 .699 1.021 3.124 1.496 3.553.366.33.773.479 1.93.703l1.052.203.501.509.501.509.199 1.04c.22 1.144.368 1.551.698 1.917.429.475 2.854 1.496 3.553 1.496.502 0 .787-.127 1.804-.802l.961-.638h1.49l.961.638c1.014.674 1.302.802 1.798.802.691 0 3.011-.958 3.525-1.455.329-.318.515-.816.733-1.958l.198-1.04.501-.509.501-.509 1.052-.203c1.157-.224 1.564-.373 1.93-.703.475-.429 1.496-2.854 1.496-3.553 0-.502-.127-.787-.802-1.804L28 16.745v-1.49l.638-.961c.674-1.014.802-1.302.802-1.798 0-.691-.958-3.011-1.455-3.525-.318-.329-.816-.516-1.971-.738l-1.052-.202-.501-.509-.501-.509-.198-1.04c-.218-1.142-.404-1.64-.733-1.958-.514-.497-2.834-1.455-3.525-1.455-.496 0-.784.128-1.798.802L16.745 4h-1.474l-.975-.64c-1.397-.916-1.624-.962-2.803-.565m2.009 2.384c.532.356 1.047.68 1.144.72.253.106 2.455.106 2.708 0 .097-.04.618-.368 1.157-.729l.981-.655.507.173c.787.267 1.641.689 1.673.825.015.063.127.618.249 1.234.126.633.265 1.189.32 1.28.135.22 1.707 1.763 1.839 1.805.059.018.645.142 1.302.274a31.37 31.37 0 0 1 1.211.256c.074.074.577 1.219.716 1.629l.175.518-.655.98c-.36.539-.688 1.06-.728 1.157-.106.253-.106 2.455 0 2.708.04.097.368.618.728 1.157l.655.98-.175.518c-.139.41-.642 1.555-.716 1.629a31.37 31.37 0 0 1-1.211.256c-.657.132-1.243.256-1.302.274-.132.042-1.704 1.585-1.839 1.805-.055.091-.194.647-.32 1.28-.122.616-.234 1.171-.249 1.234-.032.136-.886.558-1.673.825l-.507.173-.981-.655c-.539-.361-1.06-.689-1.157-.729-.253-.106-2.455-.106-2.708 0-.097.04-.618.368-1.157.729l-.981.655-.507-.173c-.787-.267-1.641-.689-1.673-.825-.015-.063-.127-.618-.249-1.234-.126-.633-.265-1.189-.32-1.28-.135-.22-1.707-1.763-1.839-1.805a44.914 44.914 0 0 0-1.302-.274 31.37 31.37 0 0 1-1.211-.256c-.074-.074-.577-1.219-.716-1.629l-.175-.518.655-.98c.36-.539.688-1.06.728-1.157.106-.253.106-2.455 0-2.708-.04-.097-.368-.618-.728-1.157l-.655-.98.175-.518c.139-.41.642-1.555.716-1.629a31.37 31.37 0 0 1 1.211-.256 44.914 44.914 0 0 0 1.302-.274c.132-.042 1.704-1.585 1.839-1.805.055-.091.194-.647.32-1.28.122-.616.234-1.171.249-1.233.019-.08.176-.184.543-.36.504-.242 1.462-.613 1.597-.618.037-.001.503.288 1.034.643M15.6 8.038c-1.444.059-3.012.609-4.259 1.495-.554.394-1.414 1.254-1.808 1.808-.735 1.035-1.204 2.191-1.425 3.512-.081.481-.081 1.813 0 2.294.3 1.798 1.032 3.245 2.266 4.479 1.653 1.653 3.856 2.476 6.199 2.316a8.096 8.096 0 0 0 4.082-1.472c.559-.397 1.418-1.256 1.815-1.815a8.096 8.096 0 0 0 1.472-4.082 8.053 8.053 0 0 0-1.472-5.228c-.396-.558-1.255-1.418-1.811-1.812A8.113 8.113 0 0 0 15.6 8.038m1.12 1.994c1.711.21 3.33 1.2 4.266 2.606a6.016 6.016 0 0 1-2.43 8.798c-2.949 1.402-6.498.157-7.941-2.784a5.98 5.98 0 0 1 2.733-8.037c1.092-.536 2.195-.727 3.372-.583" fill-rule="evenodd" fill="#000"/></svg>