<svg width="24" height="24" fill="none" xmlns="http://www.w3.org/2000/svg"><path d="M11.34 2.423c-.933.093-1.582.219-2.26.438a9.582 9.582 0 0 0-6.214 6.206c-.324 1.003-.442 1.786-.442 2.933 0 1.147.118 1.93.442 2.933a9.585 9.585 0 0 0 6.201 6.201c1.003.324 1.786.442 2.933.442 1.147 0 1.93-.118 2.933-.442a9.594 9.594 0 0 0 6.201-6.201c.324-1.003.442-1.786.442-2.933 0-1.147-.118-1.93-.442-2.933-1.133-3.509-4.095-6.01-7.774-6.565-.405-.061-1.692-.111-2.02-.079m2.066 1.291c.234.042.444.088.468.102.075.047.814 1.419.787 1.463-.014.023-.603.564-1.308 1.201-1.274 1.153-1.286 1.162-1.863 1.48l-.58.32H9.905c-1.12.001-1.432.035-1.718.191-.338.184-.47.38-.827 1.222-.179.422-.34.782-.359.801-.018.019-.061-.008-.094-.06C6.833 10.32 5.8 7.571 5.8 7.49c0-.032.175-.473.388-.98.387-.916.39-.922.616-1.11.989-.823 2.521-1.492 3.892-1.698.635-.095.64-.095 1.484-.08.555.01.93.038 1.226.092m3.231 1.279c.682.448 1.592 1.306 2.091 1.972.804 1.072 1.333 2.323 1.578 3.737.098.561.098 2.036 0 2.598-.121.698-.431 1.78-.51 1.78-.017 0-1.069-.639-2.338-1.419-1.269-.781-2.373-1.438-2.453-1.461-.304-.085-2.545-.365-2.725-.341-.292.04-.658.24-.846.463l-.167.198-.383-.001c-.211 0-.426-.011-.476-.025-.07-.019-.155-.148-.346-.53-.381-.761-.581-.918-1.382-1.085-.231-.049-.431-.1-.445-.114-.034-.033.467-1.209.533-1.251.029-.018.565-.034 1.192-.035.84-.002 1.179-.016 1.288-.055.082-.03.458-.222.835-.428l.686-.375 1.326-1.192c.729-.657 1.391-1.277 1.472-1.379.305-.385.363-1.001.136-1.446l-.11-.215.354.191c.194.105.505.291.69.413M5.218 9.394c.299.8.581 1.525.625 1.612.102.2.35.449.545.547.161.081.639.199 1.652.409.341.071.658.143.705.16.057.022.158.184.306.492.369.767.694 1.025 1.335 1.058.21.012.334.035.334.063 0 .025-.193.477-.43 1.005l-.43.96v.38c0 .584-.048.516 1.691 2.392.363.393.447.504.43.577-.012.05-.067.334-.124.631a24.52 24.52 0 0 1-.125.634c-.022.091-.03.093-.347.067a8.499 8.499 0 0 1-4.42-1.653c-.395-.297-1.102-.978-1.464-1.411-.925-1.107-1.553-2.507-1.809-4.033-.1-.593-.1-1.975 0-2.568.102-.61.282-1.263.494-1.794.19-.477.449-1.021.473-.996.008.008.259.668.559 1.468m8.321 3.787c.572.077 1.077.156 1.121.174.071.031 4.577 2.791 4.615 2.827.022.021-.297.517-.551.858-.291.389-.974 1.097-1.407 1.459-1.084.906-2.446 1.528-3.896 1.78-.242.041-.446.069-.455.061-.008-.009.034-.277.094-.597.138-.735.129-1.036-.041-1.358-.079-.149-.419-.549-1.002-1.176-.485-.522-.91-.994-.945-1.049-.061-.097-.043-.145.588-1.56.358-.803.672-1.483.697-1.51.06-.065-.014-.071 1.182.091" fill-rule="evenodd" fill="#000"/></svg>