<svg width="24" height="24" viewBox="0 0 24 24" fill="none" xmlns="http://www.w3.org/2000/svg">
<path d="M12 21C16.9706 21 21 16.9706 21 12C21 7.02944 16.9706 3 12 3C7.02944 3 3 7.02944 3 12C3 16.9706 7.02944 21 12 21Z" stroke="#212121" stroke-width="1.2" stroke-miterlimit="10"/>
<path d="M20.0776 15.9724L14.9883 12.8423C14.8991 12.7874 14.7994 12.7518 14.6956 12.7378L12.5563 12.4495C12.3957 12.4278 12.2324 12.4588 12.0908 12.5377C11.9492 12.6167 11.8371 12.7394 11.7711 12.8875L10.4868 15.7692C10.4271 15.9032 10.408 16.0518 10.4319 16.1965C10.4558 16.3413 10.5216 16.4759 10.6212 16.5836L12.3837 18.49C12.4636 18.5764 12.522 18.6804 12.5543 18.7936C12.5865 18.9068 12.5917 19.026 12.5693 19.1416L12.2103 20.9975" stroke="#212121" stroke-width="1.2" stroke-linecap="round" stroke-linejoin="round"/>
<path d="M6.08916 5.21313L5.25064 7.19592C5.17587 7.37271 5.17174 7.57145 5.23909 7.7512L6.31635 10.6263C6.36047 10.7441 6.43347 10.8488 6.52866 10.931C6.62384 11.0131 6.73815 11.07 6.86108 11.0964L8.87013 11.5283C8.98161 11.5522 9.08616 11.6013 9.17583 11.6717C9.2655 11.7421 9.33792 11.8321 9.3876 11.9347L9.74438 12.6718C9.80578 12.7986 9.90167 12.9056 10.0211 12.9805C10.1405 13.0553 10.2785 13.095 10.4195 13.095H11.6788" stroke="#212121" stroke-width="1.2" stroke-linecap="round" stroke-linejoin="round"/>
<path d="M14.2925 3.29517L15.1675 4.86252C15.2503 5.01068 15.2803 5.18253 15.2527 5.34997C15.2252 5.51741 15.1416 5.67055 15.0158 5.78437L12.4929 8.06602C12.45 8.10474 12.4029 8.13839 12.3524 8.1663L11.2047 8.80008C11.0937 8.86139 10.9689 8.89354 10.8421 8.89354H8.841C8.69342 8.89354 8.54913 8.93708 8.42619 9.0187C8.30324 9.10031 8.2071 9.21639 8.14982 9.35239L7.36914 11.2057" stroke="#212121" stroke-width="1.2" stroke-linecap="round" stroke-linejoin="round"/>
</svg>
