<svg width="32" height="32" fill="none" xmlns="http://www.w3.org/2000/svg"><path d="M15.387 6.119c-.059.014-1.463.421-3.12.904-1.658.483-3.056.882-3.108.886-.051.004-.792-.34-1.645-.764l-1.551-.772-.542.002c-.485.001-.573.017-.848.153-.577.285-.673.434-2.372 3.69-.855 1.64-1.603 3.09-1.661 3.222-.297.675-.149 1.508.374 2.102.18.205.449.359 1.901 1.093l1.692.854L7.92 20.16c1.877 1.469 3.533 2.73 3.68 2.801.15.072 1.915.541 4.027 1.068 3.606.901 3.777.939 4.192.919.788-.039.733.005 3.543-2.809 1.766-1.77 2.738-2.789 3.373-3.538l.892-1.053 1.593-.799c1.466-.735 1.615-.823 1.863-1.094.356-.39.51-.782.514-1.308a1.815 1.815 0 0 0-.099-.667c-.131-.344-3.144-6.115-3.347-6.412-.19-.277-.407-.446-.82-.638-.269-.125-.388-.148-.78-.149l-.463-.001-1.632.813-1.633.814h-2.164l-2.062-.934c-1.135-.514-2.2-.97-2.368-1.014-.298-.077-.629-.093-.842-.04m.635 2.041.479.209.233.102-2.655 2.658c-2.801 2.804-2.836 2.844-2.985 3.478-.13.551.045 1.244.423 1.675.204.232 1.181.963 1.613 1.207.737.415 1.712.627 2.653.575 1.115-.062 1.918-.386 3.052-1.233l.676-.503 1.911 1.388a113.67 113.67 0 0 1 1.99 1.463c.069.066-.159.314-1.805 1.961l-1.884 1.884-3.646-.912-3.646-.912-3.097-2.42-3.096-2.421.233-.433c.128-.238.899-1.711 1.713-3.273 1.142-2.192 1.507-2.847 1.595-2.869.063-.016 1.41-.41 2.994-.875 1.584-.465 2.908-.848 2.943-.851.034-.002.172.043.306.102m-9.461.694c.586.293 1.066.556 1.066.585 0 .057-2.972 5.763-3.038 5.831-.031.033-2.128-.961-2.235-1.059-.033-.031 3.043-5.891 3.093-5.891.026 0 .527.24 1.114.534m21.546 2.485a513.596 513.596 0 0 1 1.537 2.957c.009.026-.487.299-1.103.607l-1.119.56-1.524-2.922c-.839-1.606-1.525-2.944-1.525-2.972 0-.04 2.091-1.13 2.187-1.139.015-.001.711 1.308 1.547 2.909M23.824 12.8a944.914 944.914 0 0 1 1.703 3.266l.295.574-.471.556c-.259.307-.486.559-.504.561-.019.001-1.111-.781-2.427-1.738-1.316-.958-2.471-1.774-2.565-1.814a.972.972 0 0 0-.723.003c-.095.041-.592.389-1.105.775-1.266.95-1.648 1.122-2.491 1.123-.55.001-.915-.075-1.323-.276a8.275 8.275 0 0 1-1.172-.799c-.031-.029.892-.99 2.4-2.499l2.452-2.453 2.262.014 2.261.014 1.408 2.693M6.587 22.115c-.247.131-.354.24-.46.472-.197.429-.106.813.28 1.182.671.639 2.982 2.595 3.18 2.691.316.153 4.144 1.111 4.44 1.111.667.001 1.131-.7.873-1.319-.194-.466-.265-.496-2.467-1.05l-1.982-.498-.332-.291c-1.815-1.591-2.599-2.252-2.744-2.314-.227-.096-.59-.088-.788.016" fill-rule="evenodd" fill="#000"/></svg>