<svg width="24" height="24" fill="none" xmlns="http://www.w3.org/2000/svg"><path d="M3.48 5.036a1.008 1.008 0 0 0-.18 1.858c.152.082.211.086 1.2.086s1.048-.004 1.2-.086c.718-.388.718-1.4 0-1.788-.15-.081-.22-.086-1.14-.094-.539-.004-1.025.007-1.08.024m5.215.021a1.04 1.04 0 0 0-.567.459c-.091.156-.108.23-.108.484 0 .257.016.327.113.492.128.218.369.409.589.469.099.026 2.148.036 5.984.03l5.834-.011.16-.086c.718-.388.718-1.4 0-1.788l-.16-.086-5.84-.008c-4.697-.006-5.872.003-6.005.045m-5.215 5.98c-.865.263-.977 1.426-.18 1.857.152.082.211.086 1.2.086s1.048-.004 1.2-.086a1.01 1.01 0 0 0 .539-.897c.002-.42-.315-.845-.71-.955-.17-.048-1.896-.051-2.049-.005m5.215.02a1.04 1.04 0 0 0-.567.459c-.091.156-.108.23-.108.484 0 .257.016.327.113.492.128.218.369.409.589.469.099.026 2.148.036 5.984.03l5.834-.011.16-.086a1.01 1.01 0 0 0 .539-.897c.002-.42-.315-.845-.71-.955-.239-.067-11.62-.052-11.834.015m-5.215 5.98c-.865.263-.977 1.426-.18 1.857.152.082.211.086 1.2.086s1.048-.004 1.2-.086a1.01 1.01 0 0 0 .539-.897c.002-.42-.315-.845-.71-.955-.17-.048-1.896-.051-2.049-.005m5.215.02a1.04 1.04 0 0 0-.567.459c-.091.156-.108.23-.108.484 0 .257.016.327.113.492.128.218.369.409.589.469.099.026 2.148.036 5.984.03l5.834-.011.16-.086a1.01 1.01 0 0 0 .539-.897c.002-.42-.315-.845-.71-.955-.239-.067-11.62-.052-11.834.015" fill-rule="evenodd" fill="#000"/></svg>