<svg width="32" height="32" fill="none" xmlns="http://www.w3.org/2000/svg"><path d="M5.017 3.898c-.28.091-.405.173-.676.444-.289.29-.348.383-.45.721-.088.288-.111.466-.089.689.02.206 1.204 3.695 3.733 10.997 2.038 5.882 3.754 10.79 3.814 10.906.138.269.501.617.811.779.206.108.316.126.773.125.459 0 .571-.019.8-.132.353-.173.7-.528.853-.87.068-.152.778-2.413 1.577-5.024.8-2.61 1.492-4.785 1.539-4.831.046-.047 2.221-.739 4.831-1.539 2.611-.799 4.872-1.509 5.024-1.577.342-.153.697-.5.87-.853.113-.229.132-.341.132-.8.001-.457-.017-.567-.125-.773-.162-.31-.51-.673-.781-.813-.117-.06-5.025-1.777-10.906-3.815C4.988 3.459 5.693 3.678 5.017 3.898m11.172 5.194c5.807 2.009 10.594 3.674 10.638 3.699.044.026.08.102.08.17 0 .116-.262.203-4.88 1.625-2.684.826-4.976 1.552-5.094 1.613a2.09 2.09 0 0 0-.418.316 2.09 2.09 0 0 0-.316.418c-.061.118-.787 2.41-1.613 5.094-1.422 4.618-1.509 4.88-1.625 4.88-.068 0-.144-.036-.169-.08-.026-.044-1.692-4.839-3.704-10.656C5.408 5.532 5.378 5.44 5.595 5.44c.02 0 4.787 1.643 10.594 3.652" fill-rule="evenodd" fill="#000"/></svg>