<svg width="24" height="24" viewBox="0 0 24 24" fill="none" xmlns="http://www.w3.org/2000/svg">
<path d="M6.75 18C7.37132 18 7.875 17.4963 7.875 16.875C7.875 16.2537 7.37132 15.75 6.75 15.75C6.12868 15.75 5.625 16.2537 5.625 16.875C5.625 17.4963 6.12868 18 6.75 18Z" fill="#212121"/>
<path d="M3.43721 16.2232L5.70476 3.3633C5.73931 3.16741 5.85025 2.99326 6.01319 2.87917C6.17613 2.76508 6.37772 2.72039 6.57361 2.75493L11.7438 3.66658C11.9397 3.70112 12.1139 3.81206 12.228 3.975C12.3421 4.13794 12.3868 4.33953 12.3522 4.53542L10.0731 17.461C9.91962 18.3313 9.43095 19.1067 8.71204 19.6206C7.99312 20.1345 7.10133 20.3459 6.22822 20.2095C4.35859 19.9166 3.10859 18.0869 3.43721 16.2232Z" stroke="#212121" stroke-width="1.2" stroke-linecap="round" stroke-linejoin="round"/>
<path d="M11.0888 11.7042L17.9291 9.21454C18.116 9.14651 18.3223 9.15552 18.5026 9.23958C18.6829 9.32365 18.8224 9.47588 18.8904 9.6628L20.686 14.5962C20.7197 14.6887 20.7348 14.787 20.7305 14.8854C20.7262 14.9838 20.7026 15.0804 20.661 15.1697C20.6194 15.2589 20.5606 15.3391 20.4879 15.4057C20.4153 15.4722 20.3303 15.5238 20.2378 15.5575L7.9043 20.0465" stroke="#212121" stroke-width="1.2" stroke-linecap="round" stroke-linejoin="round"/>
<path d="M20.625 15.2374V19.5C20.625 19.6989 20.546 19.8896 20.4053 20.0303C20.2647 20.1709 20.0739 20.25 19.875 20.25H6.75" stroke="#212121" stroke-width="1.2" stroke-linecap="round" stroke-linejoin="round"/>
</svg>
