<svg width="32" height="32" fill="none" xmlns="http://www.w3.org/2000/svg"><path d="M9.813 3.274c-1.675.333-3.099 1.169-4.091 2.403-1.138 1.414-1.628 3.005-1.537 4.99.162 3.531 1.3 6.874 3.294 9.673a17.953 17.953 0 0 0 7.428 6.011c2.965 1.278 6.632 1.8 8.792 1.252 1.29-.327 2.562-1.101 3.398-2.068.891-1.031 1.437-2.189 1.65-3.498.13-.797-.183-1.55-.793-1.914-.486-.289-6.255-2.734-6.572-2.786a1.823 1.823 0 0 0-1.066.158c-.126.064-.947.596-1.825 1.182-1.844 1.231-1.546 1.159-2.476.595a9.809 9.809 0 0 1-3.607-3.843l-.138-.272 1.098-1.672c.603-.919 1.132-1.752 1.174-1.85.136-.314.184-.71.124-1.024-.055-.291-2.35-5.73-2.706-6.414-.405-.776-1.189-1.113-2.147-.923m.623 1.621c.079.05 2.577 5.867 2.577 6.001 0 .053-.491.847-1.091 1.764s-1.117 1.738-1.15 1.824c-.221.58-.168 1.055.194 1.754.879 1.694 2.285 3.241 3.867 4.255.988.633 1.593.894 2.075.894.441 0 .732-.154 2.428-1.283.923-.615 1.72-1.117 1.771-1.117.145 0 5.978 2.514 6.007 2.589.036.095-.114.787-.266 1.223-.466 1.337-1.654 2.523-3.053 3.05-.64.241-1.037.299-2.008.297-2.571-.008-4.92-.605-7.356-1.87-1.422-.738-2.603-1.616-3.847-2.86-1.244-1.244-2.122-2.425-2.86-3.847-1.261-2.427-1.857-4.762-1.873-7.329-.009-1.459.26-2.331 1.034-3.358a5.145 5.145 0 0 1 3.062-1.94c.461-.099.415-.094.489-.047" fill-rule="evenodd" fill="#000"/></svg>