<svg width="24" height="24" fill="none" xmlns="http://www.w3.org/2000/svg"><path d="M11.6 2.843a1.013 1.013 0 0 0-.494.457l-.086.16-.011 3.769-.011 3.769-3.769.011-3.769.011-.16.086a1.007 1.007 0 0 0-.538.894c0 .377.202.712.538.894l.16.086 3.769.011 3.769.011.011 3.769.011 3.769.086.16c.182.336.517.538.894.538s.712-.202.894-.538l.086-.16.011-3.769.011-3.769 3.769-.011 3.769-.011.16-.086c.336-.182.538-.517.538-.894s-.202-.712-.538-.894l-.16-.086-3.769-.011-3.769-.011-.011-3.769-.011-3.769-.086-.16A1.007 1.007 0 0 0 12 2.762c-.136 0-.289.031-.4.081" fill-rule="evenodd" fill="#000"/></svg>