<svg width="32" height="32" fill="none" xmlns="http://www.w3.org/2000/svg"><path d="M5.533 4.058c-.554.131-1.1.591-1.357 1.142l-.149.32-.017 4.267c-.019 5.026.019 5.703.414 7.44.927 4.067 3.402 7.449 7.187 9.82 1.16.726 2.8 1.508 3.794 1.808.544.164.875.128 1.729-.188.82-.303 2.248-1.001 3.053-1.492 3.887-2.372 6.448-5.821 7.389-9.948.394-1.729.432-2.43.413-7.467l-.016-4.24-.15-.326A2.266 2.266 0 0 0 26.8 4.176l-.32-.149-10.373-.009c-5.918-.004-10.46.012-10.574.04m20.426 6.462c-.022 4.868-.018 4.787-.336 6.216-.296 1.33-.975 2.998-1.654 4.064-1.073 1.683-2.589 3.211-4.304 4.338-1.072.704-2.471 1.412-3.385 1.712-.265.087-.295.087-.56 0-.494-.162-1.596-.66-2.2-.995-1.407-.778-2.512-1.607-3.601-2.703-1.952-1.964-3.154-4.258-3.649-6.961-.226-1.23-.243-1.666-.243-6.014v-4.15h19.952l-.02 4.493" fill="#3879ED" fill-rule="evenodd"/></svg>