<svg width="32" height="32" viewBox="0 0 32 32" fill="none" xmlns="http://www.w3.org/2000/svg">
<path d="M6 6V13.333L6.00586 13.7871C6.2565 23.208 14.2836 26.3815 16 26.9521C17.7437 26.3725 26 23.1062 26 13.333V6H6ZM28 13.333C28 24.5278 18.4902 28.2315 16.6318 28.8496C16.2221 28.9905 15.7769 28.9916 15.3672 28.8506V28.8496C13.5359 28.2403 4.29568 24.6416 4.00684 13.8535L4 13.333V6C4 5.46957 4.21087 4.96101 4.58594 4.58594C4.96101 4.21087 5.46957 4 6 4H26C26.5304 4 27.039 4.21086 27.4141 4.58594C27.7891 4.96101 28 5.46957 28 6V13.333Z" fill="#3879ED"/>
</svg>
