<svg width="32" height="32" viewBox="0 0 32 32" fill="none" xmlns="http://www.w3.org/2000/svg">
<path d="M11.0008 16.859L22.2405 26.7499C22.3705 26.8644 22.5281 26.9431 22.6977 26.9783C22.8673 27.0136 23.0431 27.0041 23.208 26.951C23.3729 26.8978 23.5211 26.8027 23.6382 26.675C23.7552 26.5474 23.8371 26.3915 23.8758 26.2226L28.5775 5.70604C28.6182 5.52865 28.6097 5.34354 28.5529 5.17064C28.4961 4.99774 28.3932 4.84361 28.2553 4.72487C28.1174 4.60613 27.9497 4.52727 27.7703 4.49679C27.5909 4.46631 27.4065 4.48537 27.2372 4.55191L4.16755 13.615C3.96649 13.694 3.79642 13.8359 3.68278 14.0196C3.56913 14.2033 3.51803 14.4189 3.53711 14.6341C3.5562 14.8492 3.64445 15.0525 3.78865 15.2133C3.93286 15.3741 4.12527 15.4839 4.33709 15.5263L11.0008 16.859Z" stroke="#3879ED" stroke-width="1.7" stroke-linecap="round" stroke-linejoin="round"/>
<path d="M11 16.859L28.014 4.57104" stroke="#3879ED" stroke-width="1.7" stroke-linecap="round" stroke-linejoin="round"/>
<path d="M16.6134 21.7989L12.7071 25.7052C12.5673 25.845 12.3891 25.9403 12.1951 25.9789C12.0011 26.0174 11.8 25.9976 11.6173 25.922C11.4346 25.8463 11.2784 25.7181 11.1685 25.5536C11.0587 25.3892 11 25.1959 11 24.9981V16.8591" stroke="#3879ED" stroke-width="1.7" stroke-linecap="round" stroke-linejoin="round"/>
</svg>
