<svg width="32" height="32" viewBox="0 0 32 32" fill="none" xmlns="http://www.w3.org/2000/svg">
<path d="M23.1247 4.63339L17.8794 9.87863L18.5865 13.4142L22.1221 14.1213L27.3673 8.87603L27.3678 8.87582C28.017 10.4084 28.1723 12.1052 27.812 13.7301C27.4517 15.355 26.5938 16.8272 25.3576 17.9417C24.1215 19.0561 22.5686 19.7575 20.9151 19.9481C19.2617 20.1387 17.59 19.809 16.1327 19.005L16.1328 19.0048L9.12207 27.1213C8.55935 27.6833 7.79645 27.999 7.0011 27.9987C6.20575 27.9985 5.44303 27.6825 4.88063 27.1201C4.31823 26.5577 4.00218 25.7949 4.00195 24.9996C4.00173 24.2042 4.31735 23.4413 4.87943 22.8786L12.9958 15.8679L12.9957 15.868C12.1917 14.4107 11.862 12.739 12.0526 11.0856C12.2432 9.43213 12.9446 7.87925 14.059 6.64309C15.1735 5.40692 16.6457 4.54897 18.2706 4.18868C19.8955 3.82838 21.5923 3.98365 23.1249 4.63288L23.1247 4.63339Z" stroke="#3879ED" stroke-width="2" stroke-linecap="round" stroke-linejoin="round"/>
</svg>
