<svg width="32" height="32" fill="none" xmlns="http://www.w3.org/2000/svg"><path d="M19.36 3.047c-1.658.111-3.42.763-4.72 1.745-.96.725-1.739 1.604-2.41 2.717-1.367 2.27-1.582 5.471-.53 7.913l.085.196-3.865 3.338c-2.398 2.072-3.943 3.444-4.072 3.618-.546.73-.754 1.324-.792 2.253-.034.819.057 1.268.391 1.946.213.432.326.583.762 1.018.435.436.586.549 1.018.762.678.334 1.127.425 1.946.391.671-.027 1.142-.139 1.627-.384.632-.321.841-.541 4.234-4.469l3.337-3.864.491.185c1.704.64 3.672.731 5.474.254 1.904-.504 3.65-1.689 4.872-3.306 1.636-2.166 2.189-5.21 1.422-7.838-.173-.595-.404-1.155-.535-1.297-.158-.172-.502-.329-.723-.33-.389-.003-.518.109-3.079 2.664l-2.506 2.501-1.169-.236a26.464 26.464 0 0 1-1.187-.255c-.01-.01-.125-.544-.255-1.187l-.236-1.169 2.501-2.506c1.718-1.722 2.528-2.569 2.584-2.705a.889.889 0 0 0-.019-.762c-.144-.312-.295-.425-.851-.637a8.841 8.841 0 0 0-3.795-.556m1.302 1.967c.29.028.541.065.557.081.016.016-.91.97-2.059 2.12-2.104 2.106-2.253 2.281-2.253 2.639 0 .248.735 3.835.818 3.997.088.168.27.345.449.438.143.074 3.752.804 3.972.804.358 0 .533-.149 2.639-2.253 1.15-1.149 2.104-2.076 2.119-2.06.064.064.144 1.17.113 1.567-.146 1.871-.827 3.39-2.068 4.613-1.385 1.365-3.061 2.049-5.002 2.043-1.166-.003-2.004-.203-3.109-.741-.563-.274-.812-.299-1.148-.115-.162.088-1.128 1.174-3.691 4.146-1.909 2.215-3.56 4.107-3.668 4.205-.229.207-.598.405-.861.462-.342.074-.877.038-1.195-.082-.394-.147-.889-.599-1.077-.984a2.043 2.043 0 0 1 .304-2.225c.098-.108 1.99-1.759 4.205-3.667 2.997-2.583 4.057-3.527 4.146-3.691.184-.338.159-.587-.115-1.149-.538-1.105-.738-1.943-.741-3.109-.006-1.938.661-3.579 2.023-4.976 1.306-1.341 2.863-2.003 4.953-2.106.088-.005.398.015.689.043" fill-rule="evenodd" fill="#000"/></svg>