<svg width="32" height="32" fill="none" xmlns="http://www.w3.org/2000/svg"><path d="M12.96 4.965c-2.378.08-6.307.395-6.96.557-1.132.282-2.149 1.228-2.54 2.363-.181.526-.511 3.332-.632 5.38-.079 1.323-.065 4.432.025 5.802.142 2.167.425 4.496.616 5.073.36 1.086 1.415 2.06 2.531 2.338.176.044.956.139 1.733.212a86.327 86.327 0 0 0 16.534 0c.777-.073 1.557-.168 1.733-.212 1.116-.278 2.171-1.252 2.531-2.338.114-.347.317-1.715.455-3.078.322-3.166.322-6.958 0-10.124-.138-1.363-.341-2.731-.455-3.078-.36-1.086-1.415-2.06-2.531-2.338-.372-.092-2.597-.308-4.4-.426a90.381 90.381 0 0 0-8.64-.131m5.467 1.649a82.9 82.9 0 0 1 5.706.35c1.31.122 1.469.148 1.76.283.52.242 1.011.821 1.114 1.313.148.709.418 3.276.512 4.865.07 1.18.07 3.97 0 5.15-.094 1.589-.364 4.156-.512 4.865-.103.492-.595 1.072-1.114 1.312-.28.13-.461.163-1.466.26a88.037 88.037 0 0 1-16.854 0c-1.005-.097-1.186-.13-1.466-.26-.519-.24-1.011-.819-1.114-1.312-.057-.271-.245-1.719-.329-2.533-.301-2.902-.318-6.374-.047-9.307.121-1.307.333-2.889.43-3.208.14-.456.588-.932 1.095-1.163.243-.11.494-.149 1.698-.263a82.596 82.596 0 0 1 10.587-.352m-4.684 4.61c-.112.04-.253.117-.314.171-.259.231-.256.168-.256 4.617 0 3.869.007 4.188.094 4.358.16.314.506.486.885.44.165-.02 6.268-4.062 6.479-4.291a.841.841 0 0 0 .168-.327c.056-.251-.012-.542-.168-.711-.185-.201-6.323-4.281-6.441-4.281a.66.66 0 0 1-.172-.024c-.039-.014-.163.008-.275.048m2.936 3.558c.976.65 1.774 1.198 1.774 1.218 0 .041-3.526 2.4-3.587 2.4-.022 0-.039-1.08-.039-2.4 0-1.32.017-2.4.039-2.4.021 0 .837.532 1.813 1.182" fill-rule="evenodd" fill="#000"/></svg>