<svg width="32" height="32" fill="none" xmlns="http://www.w3.org/2000/svg"><path d="M4.336 6.299c-.578.222-1.028.793-1.133 1.436-.077.475-.077 19.89 0 20.364.072.447.248.782.568 1.081a1.871 1.871 0 0 0 1.825.395c.328-.109.352-.128 2.664-2.073 1.009-.848 1.897-1.575 1.974-1.615.116-.061 1.56-.073 8.631-.073 8.434-.001 8.493-.001 8.784-.11.59-.221 1.042-.787 1.148-1.439.077-.478.077-16.052 0-16.53-.106-.652-.558-1.218-1.148-1.439-.292-.109-.321-.109-11.664-.107-11.237.003-11.375.004-11.649.11M27.12 16v8.133l-8.587.027-8.586.027-.317.131c-.252.104-.751.496-2.427 1.907-1.449 1.22-2.143 1.772-2.216 1.762-.107-.014-.107-.059-.121-10.014-.007-5.5-.002-10.03.012-10.066.02-.054 2.275-.065 11.134-.054l11.108.014V16m-15.49-2.734a.829.829 0 0 0 0 1.468c.171.087.467.093 4.433.08 4.226-.014 4.25-.015 4.4-.126a.855.855 0 0 0 0-1.376c-.15-.111-.174-.112-4.4-.126-3.966-.013-4.262-.007-4.433.08m0 4a.829.829 0 0 0 0 1.468c.171.087.467.093 4.433.08 4.226-.014 4.25-.015 4.4-.126a.855.855 0 0 0 0-1.376c-.15-.111-.174-.112-4.4-.126-3.966-.013-4.262-.007-4.433.08" fill-rule="evenodd" fill="#000"/></svg>