<svg width="24" height="24" fill="none" xmlns="http://www.w3.org/2000/svg"><path d="M6.507 3.208C6.346 3.266.973 9.407.922 9.59c-.066.239-.009.4.237.665 2.262 2.443 10.363 11.116 10.462 11.201.175.149.46.183.646.076.092-.053 8.381-8.892 10.577-11.28.243-.264.299-.424.234-.662-.056-.202-5.425-6.324-5.6-6.385-.175-.061-10.804-.058-10.971.003m4.225 1.206c-.018.029-.842 1.109-1.832 2.4L7.1 9.16H4.968c-1.769 0-2.127-.009-2.1-.053.018-.03.957-1.11 2.087-2.4L7.01 4.36h1.877c1.562 0 1.872.009 1.845.054m8.313 2.293c1.13 1.29 2.069 2.37 2.087 2.4.027.044-.331.053-2.1.053L16.9 9.159l-1.8-2.346c-.99-1.29-1.814-2.37-1.832-2.399-.027-.045.288-.054 1.845-.054h1.877l2.055 2.347m-5.363.215c.912 1.19 1.664 2.18 1.671 2.2.009.024-1.263.038-3.35.038-1.85 0-3.363-.011-3.363-.023 0-.035 3.334-4.377 3.361-4.377.012 0 .768.973 1.681 2.162M8.425 13.84l1.596 3.9.182.44-.236-.24c-.272-.277-6.919-7.407-7.002-7.511-.052-.066.054-.069 1.995-.059l2.05.01 1.415 3.46m7.256-3.45c.001.059-3.656 8.97-3.681 8.97-.025 0-3.682-8.911-3.681-8.97.001-.039 7.361-.039 7.362 0m5.335.058c-.145.167-6.788 7.293-7.003 7.512l-.216.22.157-.38 1.539-3.76 1.445-3.53.063-.15H21.092l-.076.088" fill-rule="evenodd" fill="#000"/></svg>