<svg width="32" height="32" fill="none" xmlns="http://www.w3.org/2000/svg"><path d="M16.56 2.111c-.242.126-.353.241-.457.476-.052.117-.867 2.337-1.81 4.932a486.217 486.217 0 0 1-1.751 4.78c-.022.039-.599-.375-1.555-1.113A63.72 63.72 0 0 0 9.23 9.859c-.413-.265-.998-.176-1.299.198-.201.252-.718 1.137-1.102 1.891-.849 1.667-1.426 3.402-1.685 5.065-.137.881-.163 2.56-.052 3.385a11.076 11.076 0 0 0 2.323 5.469c.409.514 1.361 1.456 1.838 1.821 2.934 2.237 6.661 2.889 10.126 1.771a10.637 10.637 0 0 0 4.205-2.52c.993-.954 1.663-1.857 2.243-3.019.794-1.591 1.16-3.168 1.16-5.003 0-4.548-2.22-9.364-6.408-13.904-1.039-1.125-2.736-2.698-3.135-2.904-.205-.106-.679-.105-.884.002m1.895 3.578c3.561 3.645 5.715 7.423 6.344 11.129.601 3.536-.289 6.475-2.639 8.719-1.244 1.187-2.747 1.958-4.516 2.313-.872.175-2.416.175-3.288 0-1.76-.354-3.279-1.132-4.517-2.315-1.134-1.081-1.89-2.266-2.376-3.72-.319-.954-.434-1.709-.434-2.855 0-2.051.495-3.961 1.583-6.1l.356-.7.329.252 1.739 1.34c.775.598 1.488 1.121 1.585 1.161.224.094.561.094.781 0 .396-.169.377-.125 2.199-5.135.948-2.606 1.749-4.805 1.781-4.887.046-.121.075-.139.152-.098.053.028.467.431.921.896" fill="#3879ED" fill-rule="evenodd"/></svg>