<svg width="32" height="32" fill="none" xmlns="http://www.w3.org/2000/svg"><path d="M6.274 6.111c-.94.228-1.803 1.036-2.128 1.992l-.119.35-.015 6.275-.016 6.274-.655.019c-.606.018-.672.03-.872.162a1.034 1.034 0 0 0-.334.386c-.114.236-.117.286-.097 1.671.02 1.374.025 1.44.156 1.781.362.947 1.211 1.685 2.173 1.889.527.112 22.739.112 23.266 0 .962-.204 1.843-.978 2.189-1.923.107-.293.119-.441.139-1.747.021-1.386.018-1.435-.096-1.671a1.034 1.034 0 0 0-.334-.386c-.2-.132-.266-.144-.872-.162l-.655-.019-.016-6.274-.015-6.275-.119-.35c-.329-.969-1.191-1.768-2.153-1.994-.497-.118-18.942-.115-19.427.002m19.252 2.026c.081.06.221.201.311.311L26 8.65l.014 6.182.014 6.181H5.972l.014-6.173L6 8.667l.131-.187c.073-.103.169-.218.214-.256.27-.229-.105-.221 9.718-.209l9.316.012.147.11m-11.97 2.004a.955.955 0 0 0-.466 1.191c.099.26.378.537.604.601.19.053 4.422.053 4.612 0 .226-.064.505-.341.604-.601a.954.954 0 0 0-.47-1.192c-.227-.11-.301-.113-2.444-.113-2.151 0-2.215.003-2.44.114M28 23.643c0 .632-.006.665-.154.899a.952.952 0 0 1-.39.357l-.236.114H4.78l-.236-.114a.952.952 0 0 1-.39-.357c-.148-.234-.154-.267-.154-.899v-.656h24v.656" fill-rule="evenodd" fill="#000"/></svg>