<svg width="32" height="32" fill="none" xmlns="http://www.w3.org/2000/svg"><path d="M4.753 7.04a.98.98 0 0 0-.578.424c-.418.614-.016 1.432.748 1.522.152.018 5.245.025 11.317.017 10.155-.015 11.053-.023 11.2-.105.323-.178.56-.558.56-.898 0-.34-.237-.72-.56-.898-.147-.082-1.046-.089-11.333-.097-6.146-.004-11.255.011-11.354.035m0 8a.98.98 0 0 0-.578.424c-.418.614-.016 1.432.748 1.522.152.018 5.245.025 11.317.017 10.155-.015 11.053-.023 11.2-.105.323-.178.56-.558.56-.898 0-.34-.237-.72-.56-.898-.147-.082-1.046-.089-11.333-.097-6.146-.004-11.255.011-11.354.035m0 8a.98.98 0 0 0-.578.424c-.418.614-.016 1.432.748 1.522.152.018 5.245.025 11.317.017 10.155-.015 11.053-.023 11.2-.105.323-.178.56-.558.56-.898 0-.34-.237-.72-.56-.898-.147-.082-1.046-.089-11.333-.097-6.146-.004-11.255.011-11.354.035" fill-rule="evenodd" fill="#000"/></svg>