<svg width="24" height="24" fill="none" xmlns="http://www.w3.org/2000/svg"><path d="M6.08 2.197c-.384.117-.749.442-.873.774-.042.115-.597 3.143-1.231 6.729l-1.154 6.52.002.64c.001.524.017.696.087.947.375 1.363 1.322 2.397 2.597 2.836.585.201.411.197 7.756.197h6.853l.228-.085c.35-.131.669-.457.816-.835.043-.109.062-.659.088-2.48.018-1.287.036-2.475.039-2.64.006-.298-.001-.32-.923-2.84-.511-1.397-.98-2.63-1.041-2.74-.216-.386-.676-.636-1.164-.633-.238.001-.508.092-3.252 1.092-1.646.599-3.003 1.079-3.017 1.066-.013-.014.217-1.379.511-3.035.592-3.326.611-3.496.439-3.85-.179-.366-.535-.669-.885-.753-.057-.014-1.277-.233-2.712-.486-2.474-.437-2.922-.497-3.164-.424M9.081 3.8c1.374.242 2.539.457 2.589.479.05.022.09.071.09.11 0 .039-.28 1.655-.622 3.591-.341 1.936-.666 3.781-.721 4.1-.581 3.351-.986 5.541-1.067 5.766a2.344 2.344 0 0 1-.566.907c-.568.593-1.236.885-2.028.886-.779.002-1.363-.241-1.92-.799-.286-.285-.377-.409-.53-.722a4.136 4.136 0 0 1-.251-.638c-.14-.558-.15-.491 1.086-7.5.632-3.586 1.167-6.542 1.189-6.57.022-.027.087-.05.145-.05.059 0 1.231.198 2.606.44m9.206 6.03c.101.119 1.842 4.969 1.818 5.064-.019.074-.67.321-4.633 1.763-2.537.922-4.721 1.717-4.855 1.767l-.243.09.115-.327c.084-.236.255-1.111.615-3.147.274-1.551.503-2.837.51-2.858.01-.035 6.465-2.411 6.57-2.419.024-.001.07.028.103.067M6.296 15.856c-.412.192-.623.506-.648.967-.02.363.083.622.348.87.831.777 2.146-.052 1.826-1.151a1.185 1.185 0 0 0-.679-.715 1.162 1.162 0 0 0-.847.029m13.744 2.059c0 1.329-.01 1.644-.054 1.68-.04.033-1.277.043-4.61.035l-4.556-.01 4.58-1.668c2.519-.918 4.594-1.67 4.61-1.67.017-.001.03.734.03 1.633" fill="#212121" fill-rule="evenodd"/></svg>