<svg width="24" height="24" fill="none" xmlns="http://www.w3.org/2000/svg"><path d="M10.2 2.028a9.95 9.95 0 0 0-2.471.549 9.7 9.7 0 0 0-2.396 1.37A11.688 11.688 0 0 0 3.938 5.34a8.894 8.894 0 0 0-1.757 7.308c.671 3.329 3.278 6.041 6.579 6.845.75.183 1.275.243 2.12.243.898 0 1.408-.063 2.24-.28 1.119-.291 2.306-.87 3.171-1.546l.111-.087 2.009 2.004c1.105 1.103 2.072 2.038 2.149 2.078.099.052.228.074.44.074.257.001.327-.015.489-.11.431-.253.606-.729.446-1.212-.059-.177-.267-.399-2.089-2.226l-2.022-2.03.086-.11c.676-.865 1.255-2.052 1.546-3.171.217-.832.28-1.342.28-2.24 0-1.984-.579-3.731-1.767-5.334-.386-.521-1.234-1.369-1.755-1.755-1.755-1.3-3.882-1.924-6.014-1.763m1.7 2.057c2.695.401 4.89 2.369 5.615 5.035.204.749.275 1.905.165 2.68-.426 3.012-2.753 5.392-5.734 5.866-.805.127-1.95.076-2.747-.124a6.895 6.895 0 0 1-4.976-4.975c-.156-.622-.197-.984-.195-1.707.004-1.181.195-2 .712-3.04a6.637 6.637 0 0 1 3.08-3.08 6.68 6.68 0 0 1 2.56-.715c.294-.024 1.197.012 1.52.06" fill-rule="evenodd" fill="#000"/></svg>