<svg width="32" height="32" fill="none" xmlns="http://www.w3.org/2000/svg"><path d="M27.333 3.689c-.288.043-23.368 9.085-23.741 9.301a2.163 2.163 0 0 0-.438.375c-.774.878-.463 2.344.598 2.823.179.081 1.319.332 3.261.718 1.643.326 3.028.606 3.079.62.086.025.093.292.107 4.011l.014 3.983.149.282c.198.377.517.685.883.855.249.116.38.14.755.141.784.003.807-.013 2.88-2.075l1.787-1.778 2.56 2.26c2.906 2.566 2.966 2.61 3.65 2.603.534-.005.932-.16 1.278-.496a2.29 2.29 0 0 0 .368-.465c.062-.122 1.117-4.607 2.496-10.609 1.937-8.434 2.388-10.469 2.388-10.771a1.71 1.71 0 0 0-.503-1.257 1.779 1.779 0 0 0-1.571-.521m-1.968 12.33c-1.474 6.427-2.337 10.089-2.384 10.119a.313.313 0 0 1-.101.047c-.015 0-1.215-1.047-2.667-2.326a4419.213 4419.213 0 0 0-3.92-3.45c-2.89-2.538-3.92-3.456-3.918-3.491.004-.061 15.274-11.064 15.288-11.015.007.024-1.027 4.576-2.298 10.116m-8.359-4.52c-3.354 2.424-6.131 4.419-6.169 4.434-.126.05-6.421-1.232-6.452-1.314a.188.188 0 0 1 .02-.15c.041-.064 18.518-7.368 18.655-7.374.025-.001-2.699 1.981-6.054 4.404m-3.273 8.875c.88.773 1.607 1.43 1.615 1.462.008.032-.727.798-1.633 1.703-1.198 1.197-1.674 1.64-1.747 1.626-.098-.019-.102-.129-.115-3.243l-.014-3.223.147.136c.081.074.867.767 1.747 1.539" fill-rule="evenodd" fill="#000"/></svg>