<svg width="32" height="32" fill="none" xmlns="http://www.w3.org/2000/svg"><path d="M14.587 3.259C9.61 3.868 5.54 7.106 3.896 11.762c-1.143 3.235-.893 7.019.662 10.038l.227.439-.584 2.041c-.549 1.917-.582 2.062-.556 2.398.016.197.076.466.134.596.121.275.473.675.735.837.228.141.67.261.963.262.126 0 1.11-.253 2.254-.579l2.031-.579.386.202c1.735.907 3.759 1.388 5.852 1.389 2.405.001 4.522-.581 6.591-1.812 3.412-2.03 5.721-5.64 6.153-9.619.081-.75.069-2.155-.026-2.923a12.887 12.887 0 0 0-5.646-9.133c-1.211-.804-2.96-1.545-4.356-1.845-1.173-.253-3.031-.349-4.129-.215m2.575 1.65c1.378.146 2.564.499 3.851 1.144 1.132.568 1.923 1.143 2.857 2.077.983.983 1.542 1.767 2.161 3.033.808 1.654 1.164 3.353 1.098 5.237-.034.942-.113 1.512-.33 2.374-.667 2.648-2.364 5.023-4.683 6.551a10.994 10.994 0 0 1-6.108 1.822c-1.937 0-3.527-.398-5.32-1.33-.343-.178-.692-.324-.776-.324-.085 0-1.128.279-2.319.619-1.919.549-2.174.61-2.244.539-.071-.07-.01-.325.539-2.244.34-1.191.619-2.234.619-2.319 0-.084-.146-.433-.324-.776-.934-1.797-1.33-3.387-1.33-5.347 0-1.724.367-3.305 1.126-4.857a11.22 11.22 0 0 1 7.808-6.044c.984-.201 2.354-.264 3.375-.155m-5.567 3.864c-1.823.396-3.136 1.854-3.39 3.761-.126.941.112 2.659.542 3.92 1.404 4.123 4.985 6.922 9.385 7.336 1.089.103 1.905-.005 2.65-.349 1.526-.705 2.523-2.213 2.524-3.818.001-1.032-.165-1.213-2.141-2.339-1.6-.912-1.835-1.006-2.362-.94-.351.044-.625.173-1.559.738l-.756.457-.391-.267a5.315 5.315 0 0 1-1.349-1.343l-.286-.417.456-.756c.565-.934.694-1.208.738-1.559.066-.527-.028-.762-.94-2.362-.926-1.625-1.134-1.887-1.632-2.057-.304-.103-1.027-.106-1.489-.005m1.607 2.76.756 1.322c.076.131.057.172-.53 1.147-.609 1.012-.735 1.269-.735 1.494 0 .199.505 1.139.874 1.627a7.012 7.012 0 0 0 1.484 1.44c.444.315 1.285.744 1.457.744.221 0 .483-.129 1.49-.735.975-.587 1.016-.606 1.147-.53l1.322.756 1.186.677v.23c0 .726-.548 1.62-1.274 2.078-.433.274-.83.369-1.517.364-4.491-.03-8.328-3.429-8.942-7.919-.035-.256-.065-.76-.067-1.12-.002-.541.018-.709.113-.97.366-1.007 1.351-1.768 2.31-1.787l.249-.004.677 1.186" fill-rule="evenodd" fill="#000"/></svg>