<svg width="32" height="32" fill="none" xmlns="http://www.w3.org/2000/svg"><path d="M6.774 6.188c-.236.055-.584.419-.596.623-.01.189 0 .327.038.496.019.084 1.609 1.713 4.307 4.413L14.799 16l-4.276 4.28c-2.698 2.7-4.288 4.329-4.307 4.413-.099.439-.055.628.204.887s.448.303.887.204c.084-.019 1.713-1.609 4.413-4.307L16 17.201l4.28 4.276c2.7 2.698 4.329 4.288 4.413 4.307.439.099.628.055.887-.204.259-.258.298-.433.202-.887-.018-.085-1.554-1.66-4.305-4.413L17.201 16l4.276-4.28c2.751-2.753 4.287-4.328 4.305-4.413.096-.454.057-.629-.202-.887-.259-.259-.448-.303-.887-.204-.084.019-1.713 1.609-4.413 4.307L16 14.799l-4.28-4.276C8.5 7.305 7.4 6.238 7.28 6.211l-.24-.05a.896.896 0 0 0-.266.027" fill-rule="evenodd" fill="#000"/></svg>