<svg width="32" height="32" viewBox="0 0 32 32" fill="none" xmlns="http://www.w3.org/2000/svg">
<rect width="32" height="32" rx="16" fill="#5336F8"/>
<g clip-path="url(#clip0_40000002_8890)">
<path d="M15.7882 8.21333C11.1527 8.45556 8.09267 12.0911 8.28601 16.6756C8.37045 18.6822 9.17712 20.4089 9.36823 22.3133C9.41712 22.8067 9.27489 23.4156 9.84378 23.6311C10.5438 23.8956 11.6171 23.4511 12.2038 23.0444C12.4038 22.9089 12.5949 22.7511 12.7416 22.5556C13.3482 22.9578 13.9238 23.3467 14.646 23.52C17.826 24.2822 21.3105 22.5378 22.8593 19.7356C25.7705 14.4711 21.8349 7.89778 15.7882 8.21333ZM13.9882 19.2C13.7371 19.3956 13.4949 19.6622 13.2171 19.8156C12.8149 20.0311 12.6904 19.8067 12.5393 19.4511C12.0638 18.32 12.006 16.3933 12.2838 15.2089C12.6571 13.5978 13.9038 12.18 15.6171 12.0289C17.3505 11.8756 18.9593 12.7556 19.686 14.3444C21.2949 17.88 17.1771 21.3711 13.9882 19.2022V19.2Z" fill="white"/>
</g>
<defs>
<clipPath id="clip0_40000002_8890">
<rect width="16" height="16" fill="white" transform="translate(8 8)"/>
</clipPath>
</defs>
</svg>
